# xmcd CD database file
#
# Track frame offsets:
#	150
#	21823
#	32266
#	55428
#	75091
#	89326
#	117905
#	135677
#	160237
#	185091
#
# Disc length: 2625 seconds
#
# Revision: 0
# Processed by: cddbd v1.5.2PL0 Copyright (c) Steve Scherf et al.
# Submitted via: CDex 1.70beta2
#
DISCID=750a3f0a
DTITLE=Stormfågel - Ett berg av fasa
DYEAR=2007
DGENRE=Neo-Classical
TTITLE0=Sköldmön
TTITLE1=but there was a Hammer
TTITLE2=Az Idegen Jövö
TTITLE3=Kis Kece Lányom
TTITLE4=Herrschaft Des Verbrechens
TTITLE5=Várj Meg Vándor
TTITLE6=I Cursed Each Tune
TTITLE7=Ett Berg Av Fasa
TTITLE8=The Smile
TTITLE9=Gammal Visa
EXTD=YEAR: 2007
EXTT0=
EXTT1=
EXTT2=
EXTT3=
EXTT4=
EXTT5=
EXTT6=
EXTT7=
EXTT8=
EXTT9=
PLAYORDER=
